<?xml version="1.0" encoding="utf-8"?>
<!-- Generator: Adobe Illustrator 16.0.0, SVG Export Plug-In . SVG Version: 6.00 Build 0)  -->
<!DOCTYPE svg PUBLIC "-//W3C//DTD SVG 1.1//EN" "http://www.w3.org/Graphics/SVG/1.1/DTD/svg11.dtd">
<svg version="1.1"
	 id="Camada_1" xmlns:dc="http://purl.org/dc/elements/1.1/" xmlns:cc="http://creativecommons.org/ns#" xmlns:rdf="http://www.w3.org/1999/02/22-rdf-syntax-ns#" xmlns:svg="http://www.w3.org/2000/svg" xmlns:sodipodi="http://sodipodi.sourceforge.net/DTD/sodipodi-0.dtd" xmlns:inkscape="http://www.inkscape.org/namespaces/inkscape"
	 xmlns="http://www.w3.org/2000/svg" xmlns:xlink="http://www.w3.org/1999/xlink" x="0px" y="0px" width="526.32px"
	 height="526.268px" viewBox="-614.9 265.732 526.32 526.268" enable-background="new -614.9 265.732 526.32 526.268"
	 xml:space="preserve">
<g transform="translate(0,-952.36218)">
	<path d="M-602.66,1218.095c-6.675,0-12.24,5.565-12.24,12.24v36.72c0,6.675,5.565,12.24,12.24,12.24h30.6v293.76
		c0,6.675,5.565,12.24,12.24,12.24h201.96v46.665l-90.27,102.127c-2.271,2.535-2.057,6.432,0.478,8.702
		c2.535,2.271,6.431,2.057,8.702-0.478l81.09-91.991v63.494c-0.048,3.38,2.653,6.159,6.034,6.207
		c3.379,0.048,6.159-2.653,6.207-6.033c0.001-0.058,0.001-0.116,0-0.174v-63.494l81.09,91.991c2.271,2.534,6.167,2.749,8.702,0.478
		c2.535-2.271,2.749-6.167,0.478-8.702l-90.27-102.318v-46.474h201.96c6.675,0,12.24-5.565,12.24-12.24v-293.76h30.6
		c6.675,0,12.24-5.565,12.24-12.24v-36.72c0-6.675-5.565-12.24-12.24-12.24H-602.66z M-602.66,1230.335h501.84v36.72h-501.84
		V1230.335z M-559.82,1279.295h416.16v293.76h-416.16V1279.295z M-333.763,1309.895c-3.229,0.203-5.743,2.884-5.737,6.12v91.801
		c-0.014,3.168,2.392,5.822,5.546,6.119c0.191,0.01,0.383,0.01,0.574,0h91.8c3.38,0,6.119-2.74,6.12-6.119
		c0-54.008-43.913-97.92-97.92-97.92C-333.508,1309.891-333.636,1309.891-333.763,1309.895z M-327.26,1322.517
		c42.478,3.005,76.184,36.696,79.177,79.177h-79.177V1322.517z M-363.98,1334.375c-57.387,0-104.04,46.653-104.04,104.04
		s46.652,104.04,104.04,104.04c57.388,0,104.04-46.653,104.04-104.04c0-3.38-2.74-6.12-6.12-6.12h-91.8v-91.8
		C-357.86,1337.115-360.601,1334.375-363.98,1334.375z M-370.1,1346.997v91.417c0,3.38,2.74,6.119,6.12,6.119h91.609
		c-3.153,47.897-42.902,85.681-91.609,85.681c-50.772,0-91.8-41.027-91.8-91.8C-455.78,1389.717-417.985,1350.162-370.1,1346.997z"
		/>
</g>
</svg>
